<svg width="38" height="26" viewBox="0 0 38 26" fill="none" xmlns="http://www.w3.org/2000/svg">
<rect x="0.720947" width="37.2791" height="25.5628" rx="2.13023" fill="#F1F6FF"/>
<path fill-rule="evenodd" clip-rule="evenodd" d="M18.3275 16.7792V13.5616H19.9883C20.6688 13.5616 21.2431 13.3335 21.7114 12.8838L21.8238 12.7698C22.6791 11.8387 22.6229 10.3882 21.7114 9.52681C21.2556 9.07076 20.6313 8.82373 19.9883 8.8364H17.3224V16.7792H18.3275ZM18.3277 12.5859V9.8116H20.0136C20.3758 9.8116 20.7192 9.95095 20.9752 10.2043C21.5185 10.7364 21.531 11.6231 21.0064 12.1742C20.7504 12.4465 20.3883 12.5986 20.0136 12.5859H18.3277ZM26.5124 11.7697C26.0817 11.3706 25.4948 11.168 24.7518 11.168C23.7966 11.168 23.0787 11.5227 22.6042 12.2257L23.4907 12.7895C23.8154 12.3081 24.2586 12.0674 24.8205 12.0674C25.1764 12.0674 25.5198 12.2004 25.7882 12.4411C26.0504 12.6691 26.2003 12.9985 26.2003 13.3468V13.5812C25.8132 13.3658 25.3262 13.2518 24.7269 13.2518C24.0276 13.2518 23.4657 13.4165 23.0474 13.7522C22.6291 14.0879 22.4169 14.5313 22.4169 15.095C22.4044 15.6081 22.6229 16.0958 23.01 16.4252C23.4033 16.7799 23.9028 16.9572 24.4896 16.9572C25.1826 16.9572 25.732 16.6469 26.1503 16.0261H26.194V16.7799H27.1555V13.4292C27.1555 12.7261 26.9432 12.1687 26.5124 11.7697ZM23.7843 15.7782C23.5782 15.6262 23.4534 15.3792 23.4534 15.1131C23.4534 14.8154 23.5907 14.5684 23.8592 14.3721C24.134 14.1757 24.4774 14.0744 24.8833 14.0744C25.4453 14.068 25.8824 14.1947 26.1946 14.4481C26.1946 14.8788 26.026 15.2525 25.695 15.5692C25.3953 15.8732 24.9894 16.0442 24.5648 16.0442C24.2838 16.0506 24.0091 15.9556 23.7843 15.7782ZM29.3157 19.1679L32.6745 11.3454H31.582L30.0274 15.2472H30.0087L28.4166 11.3454H27.3241L29.5279 16.4316L28.2793 19.1679H29.3157Z" fill="#3C4043"/>
<path d="M14.8573 12.8701C14.8573 12.5597 14.8323 12.2493 14.7824 11.9453H10.5432V13.6998H12.9718C12.8719 14.2636 12.5473 14.7703 12.0728 15.087V16.2271H13.5212C14.3703 15.4353 14.8573 14.2636 14.8573 12.8701Z" fill="#4285F4"/>
<path d="M10.5433 17.3309C11.7545 17.3309 12.7784 16.9255 13.5214 16.2288L12.0729 15.0887C11.6671 15.3674 11.1489 15.5257 10.5433 15.5257C9.36961 15.5257 8.37693 14.7213 8.02107 13.6445H6.52893V14.8227C7.29061 16.3618 8.84517 17.3309 10.5433 17.3309Z" fill="#34A853"/>
<path d="M8.02125 13.6426C7.83392 13.0789 7.83392 12.4645 8.02125 11.8944V10.7227H6.52888C5.88572 12.0085 5.88572 13.5286 6.52888 14.8144L8.02125 13.6426Z" fill="#FBBC04"/>
<path d="M10.5433 10.0125C11.1864 9.99983 11.8045 10.2469 12.2665 10.6966L13.5526 9.39176C12.7347 8.61902 11.6609 8.19464 10.5433 8.20731C8.84517 8.20731 7.29061 9.18274 6.52893 10.7219L8.02107 11.9C8.37693 10.8169 9.36961 10.0125 10.5433 10.0125Z" fill="#EA4335"/>
</svg>
