<svg width="39" height="26" viewBox="0 0 39 26" fill="none" xmlns="http://www.w3.org/2000/svg">
<rect x="0.790771" width="37.2791" height="25.5628" rx="2.13023" fill="#FFF4EE"/>
<path fill-rule="evenodd" clip-rule="evenodd" d="M19.6967 18.2767C18.4275 19.3719 16.7812 20.0331 14.9822 20.0331C10.9682 20.0331 7.71411 16.7413 7.71411 12.6806C7.71411 8.61994 10.9682 5.32812 14.9822 5.32812C16.7812 5.32812 18.4275 5.9893 19.6967 7.08454C20.9658 5.9893 22.6122 5.32812 24.4111 5.32812C28.4252 5.32812 31.6792 8.61994 31.6792 12.6806C31.6792 16.7413 28.4252 20.0331 24.4111 20.0331C22.6122 20.0331 20.9658 19.3719 19.6967 18.2767Z" fill="#ED0006"/>
<path fill-rule="evenodd" clip-rule="evenodd" d="M19.6967 18.2767C21.2594 16.9281 22.2503 14.9214 22.2503 12.6806C22.2503 10.4398 21.2594 8.43312 19.6967 7.08454C20.9658 5.9893 22.6121 5.32812 24.4111 5.32812C28.4252 5.32812 31.6792 8.61994 31.6792 12.6806C31.6792 16.7413 28.4252 20.0331 24.4111 20.0331C22.6121 20.0331 20.9658 19.3719 19.6967 18.2767Z" fill="#F9A000"/>
<path fill-rule="evenodd" clip-rule="evenodd" d="M19.6967 18.2741C21.2594 16.9255 22.2503 14.9189 22.2503 12.6781C22.2503 10.4373 21.2594 8.43061 19.6967 7.08203C18.134 8.43061 17.1431 10.4373 17.1431 12.6781C17.1431 14.9189 18.134 16.9255 19.6967 18.2741Z" fill="#FF5E00"/>
</svg>
