<svg width="38" height="26" viewBox="0 0 38 26" fill="none" xmlns="http://www.w3.org/2000/svg">
<rect width="37.2791" height="25.5628" rx="2.13023" fill="#EBF3FA"/>
<path d="M15.9492 17.1324H13.8413L15.1597 8.98047H17.2674L15.9492 17.1324Z" fill="#00579F"/>
<path d="M23.5894 9.17909C23.1737 9.01415 22.5142 8.83203 21.6989 8.83203C19.6173 8.83203 18.1515 9.94203 18.1425 11.529C18.1252 12.6999 19.192 13.3502 19.9898 13.7406C20.8053 14.1395 21.0825 14.3999 21.0825 14.7555C21.0742 15.3016 20.4236 15.5533 19.8167 15.5533C18.9752 15.5533 18.5242 15.4236 17.839 15.1197L17.5614 14.9895L17.2665 16.8194C17.7608 17.0446 18.6717 17.2445 19.6173 17.2533C21.829 17.2533 23.2689 16.1604 23.2859 14.4693C23.2944 13.5413 22.7311 12.8302 21.5166 12.2492C20.7794 11.8762 20.3279 11.6247 20.3279 11.243C20.3366 10.8961 20.7098 10.5407 21.542 10.5407C22.2272 10.5233 22.7307 10.688 23.1121 10.8529L23.3028 10.9394L23.5894 9.17909Z" fill="#00579F"/>
<path d="M26.392 14.2445C26.5656 13.7762 27.2336 11.9636 27.2336 11.9636C27.2248 11.981 27.4068 11.4867 27.5109 11.1832L27.6582 11.8856C27.6582 11.8856 28.0574 13.8369 28.1441 14.2445C27.8146 14.2445 26.8084 14.2445 26.392 14.2445ZM28.9939 8.98047H27.3635C26.8607 8.98047 26.4787 9.12778 26.2618 9.65684L23.1309 17.1323H25.3426C25.3426 17.1323 25.7067 16.1262 25.7849 15.9095C26.0276 15.9095 28.1791 15.9095 28.4912 15.9095C28.5518 16.1957 28.7427 17.1323 28.7427 17.1323H30.6944L28.9939 8.98047Z" fill="#00579F"/>
<path d="M12.0805 8.98047L10.0163 14.5393L9.7907 13.4119C9.40906 12.1111 8.21215 10.6977 6.87646 9.99491L8.76727 17.1238H10.9963L14.3094 8.98047H12.0805Z" fill="#00579F"/>
<path d="M8.09947 8.98047H4.70816L4.67346 9.14518C7.3189 9.82167 9.07092 11.4523 9.79075 13.4123L9.05352 9.66572C8.93214 9.14507 8.55915 8.99764 8.09947 8.98047Z" fill="#FAA61A"/>
</svg>
