<svg width="39" height="26" viewBox="0 0 39 26" fill="none" xmlns="http://www.w3.org/2000/svg">
<rect x="0.930176" width="37.2791" height="25.5628" rx="2.13023" fill="#F5F4FF"/>
<path fill-rule="evenodd" clip-rule="evenodd" d="M20.9601 8.67234L19.0664 9.07875V7.54342L20.9601 7.14453V8.67234ZM13.2646 8.01826L11.4237 8.40962L11.4161 14.4381C11.4161 15.5519 12.2536 16.3723 13.3702 16.3723C13.9888 16.3723 14.4415 16.2594 14.6905 16.1239V14.5961C14.4491 14.694 13.257 15.0402 13.257 13.9263V11.2545H14.6905V9.65143H13.257L13.2646 8.01826ZM33.4162 12.9674C33.4162 11.0407 32.4807 9.52044 30.6926 9.52044C28.897 9.52044 27.8106 11.0407 27.8106 12.9524C27.8106 15.2177 29.0932 16.3617 30.934 16.3617C31.8319 16.3617 32.5109 16.1585 33.0239 15.8725V14.3673C32.5109 14.6232 31.9224 14.7812 31.1755 14.7812C30.4437 14.7812 29.7948 14.5253 29.7118 13.6372H33.4011C33.4011 13.5958 33.4038 13.5016 33.407 13.3931L33.407 13.393C33.4112 13.2454 33.4162 13.0715 33.4162 12.9674ZM29.6892 12.2516C29.6892 11.4011 30.2098 11.0474 30.6851 11.0474C31.1453 11.0474 31.6357 11.4011 31.6357 12.2516H29.6892ZM8.80582 11.1555C8.40595 11.1555 8.16452 11.2684 8.16452 11.5619C8.16452 11.8824 8.58002 12.0234 9.0955 12.1983C9.93584 12.4834 11.0419 12.8586 11.0466 14.2487C11.0466 15.5959 9.96769 16.3711 8.39841 16.3711C7.74957 16.3711 7.04038 16.2432 6.33873 15.9421V14.1509C6.97248 14.4971 7.7722 14.753 8.39841 14.753C8.8209 14.753 9.12269 14.6401 9.12269 14.2939C9.12269 13.9389 8.67228 13.7767 8.12851 13.5808C7.30039 13.2824 6.25574 12.9061 6.25574 11.6522C6.25574 10.3201 7.27426 9.52232 8.80582 9.52232C9.43202 9.52232 10.0507 9.62016 10.6769 9.86852V11.6372C10.1035 11.3286 9.37921 11.1555 8.80582 11.1555ZM17.0369 10.207L16.9162 9.65004H15.2866V16.2354H17.1728V11.7724C17.6179 11.1929 18.3723 11.2983 18.6062 11.3811V9.65004C18.3648 9.55973 17.4821 9.39415 17.0369 10.207ZM19.0663 9.6513H20.96V16.2367H19.0663V9.6513ZM23.4196 10.1075C23.6836 9.86664 24.1589 9.52044 24.8983 9.52044C26.2186 9.52044 27.4635 10.7096 27.471 12.8922C27.471 15.278 26.2412 16.3617 24.8908 16.3617C24.2268 16.3617 23.827 16.0833 23.5554 15.8876L23.5478 18.0175L21.6617 18.4164V9.64086H23.3215L23.4196 10.1075ZM23.5553 14.3519C23.7364 14.5476 24.0005 14.7056 24.4456 14.7056C25.1397 14.7056 25.6075 13.953 25.6075 12.9445C25.6075 11.9586 25.1322 11.1909 24.4456 11.1909C24.0156 11.1909 23.7439 11.3414 23.5478 11.5597L23.5553 14.3519Z" fill="#6461FC"/>
</svg>
