<svg width="39" height="26" viewBox="0 0 39 26" fill="none" xmlns="http://www.w3.org/2000/svg">
<rect x="0.860474" width="37.2791" height="25.5628" rx="2.13023" fill="#F3FBFF"/>
<path d="M17.0882 18.9296L17.3167 17.4784L16.8078 17.4665H14.3776L16.0665 6.7577C16.0716 6.72537 16.0887 6.69523 16.1136 6.67382C16.1385 6.65242 16.1705 6.64062 16.2037 6.64062H20.3014C21.6618 6.64062 22.6006 6.92371 23.0908 7.48246C23.3205 7.74458 23.4669 8.01849 23.5377 8.31992C23.6119 8.63622 23.6133 9.0141 23.5407 9.47499L23.5354 9.50863V9.80395L23.7653 9.93414C23.9588 10.0368 24.1125 10.1543 24.2305 10.2889C24.4272 10.513 24.5543 10.7978 24.608 11.1355C24.6635 11.4828 24.6451 11.8961 24.5543 12.364C24.4494 12.9022 24.2799 13.3709 24.051 13.7545C23.8404 14.1079 23.5722 14.401 23.2537 14.6282C22.9497 14.844 22.5884 15.0079 22.1799 15.1128C21.784 15.2158 21.3328 15.2678 20.8379 15.2678H20.5189C20.2909 15.2678 20.0694 15.3499 19.8956 15.4972C19.7213 15.6475 19.6058 15.8527 19.5705 16.0773L19.5465 16.208L19.1428 18.7657L19.1244 18.8596C19.1197 18.8895 19.1114 18.9043 19.0992 18.9144C19.0882 18.9234 19.0725 18.9296 19.0572 18.9296H17.0882Z" fill="#253B80"/>
<path d="M23.982 9.53906C23.9698 9.61726 23.9558 9.6972 23.9401 9.77933C23.3996 12.5539 21.5509 13.5123 19.1895 13.5123H17.9873C17.6986 13.5123 17.4553 13.722 17.4102 14.0069L16.7947 17.9107L16.6204 19.0172C16.5911 19.2042 16.7353 19.3729 16.9239 19.3729H19.0564C19.3089 19.3729 19.5233 19.1894 19.563 18.9404L19.584 18.832L19.9856 16.2842L20.0114 16.1445C20.0506 15.8946 20.2655 15.7111 20.518 15.7111H20.8369C22.9028 15.7111 24.5202 14.8723 24.9929 12.4451C25.1903 11.4311 25.0881 10.5845 24.5656 9.98903C24.4075 9.80947 24.2113 9.6605 23.982 9.53906Z" fill="#179BD7"/>
<path d="M23.4155 9.31506C23.333 9.29103 23.2477 9.26918 23.1603 9.24953C23.0726 9.23031 22.9825 9.21327 22.89 9.19842C22.5658 9.14599 22.2106 9.12109 21.8301 9.12109H18.6183C18.5392 9.12109 18.4641 9.139 18.3969 9.17133C18.2487 9.24254 18.1387 9.38278 18.112 9.55446L17.4287 13.882L17.4091 14.0083C17.4541 13.7234 17.6974 13.5137 17.9861 13.5137H19.1884C21.5497 13.5137 23.3985 12.5548 23.9389 9.78075C23.955 9.69862 23.9686 9.61868 23.9808 9.54049C23.8441 9.46796 23.6959 9.40593 23.5365 9.35306C23.4972 9.33996 23.4566 9.32729 23.4155 9.31506Z" fill="#222D65"/>
<path d="M18.1139 9.55482C18.1405 9.38312 18.2507 9.24289 18.3987 9.17212C18.4665 9.13979 18.5412 9.12188 18.6202 9.12188H21.8321C22.2126 9.12188 22.5678 9.14678 22.8918 9.19921C22.9845 9.21406 23.0745 9.2311 23.1623 9.25031C23.2497 9.26998 23.3349 9.29182 23.4175 9.31584C23.4585 9.32808 23.4991 9.34074 23.5388 9.35342C23.6983 9.40627 23.8464 9.46875 23.9831 9.54083C24.144 8.51551 23.9819 7.81741 23.4275 7.18526C22.8164 6.48935 21.7133 6.19141 20.3018 6.19141H16.2039C15.9156 6.19141 15.6697 6.40109 15.6251 6.68637L13.9183 17.5053C13.8846 17.7193 14.0497 17.9125 14.2655 17.9125H16.7955L17.4307 13.8824L18.1139 9.55482Z" fill="#253B80"/>
</svg>
