<svg width="18" height="16" viewBox="0 0 18 16" fill="none" xmlns="http://www.w3.org/2000/svg">
<path fill-rule="evenodd" clip-rule="evenodd" d="M15.1999 12.8996C13.2999 13.6996 11.1999 14.0996 9.09992 14.0996C6.29992 14.0996 3.59992 13.3996 1.19992 11.9996C0.999924 11.8996 0.899924 12.0996 0.999924 12.1996C3.19992 14.1996 5.99992 15.1996 8.89992 15.1996C11.1999 15.1996 13.4999 14.4996 15.3999 13.1996C15.7999 13.0996 15.4999 12.6996 15.1999 12.8996ZM16.9999 11.8996C16.0999 11.4996 14.9999 11.5996 14.1999 12.1996C13.9999 12.2996 14.0999 12.4996 14.1999 12.3996C14.7999 12.2996 15.9999 12.1996 16.1999 12.4996C16.3999 12.7996 15.9999 13.9996 15.6999 14.4996C15.5999 14.6996 15.7999 14.6996 15.8999 14.5996C16.6999 13.8996 17.0999 12.8996 16.9999 11.8996ZM7.99992 10.5996C9.09992 10.6996 10.1999 10.1996 10.8999 9.29961C11.1999 9.69961 11.4999 10.0996 11.8999 10.4996C11.9999 10.5996 12.1999 10.5996 12.2999 10.4996C12.5999 10.1996 13.2999 9.59961 13.5999 9.29961C13.6999 9.19961 13.6999 8.99961 13.5999 8.79961C13.1999 8.39961 12.9999 7.79961 12.8999 7.19961V4.49961C12.8999 3.39961 12.9999 2.29961 12.0999 1.49961C11.3999 0.899609 10.3999 0.599609 9.49992 0.599609C7.89992 0.699609 5.99992 1.29961 5.69992 3.29961C5.69992 3.49961 5.79992 3.59961 5.99992 3.59961L7.69992 3.79961C7.89992 3.79961 7.99992 3.59961 7.99992 3.49961C8.09992 2.79961 8.69992 2.39961 9.39992 2.49961C9.79992 2.49961 10.0999 2.69961 10.3999 2.99961C10.5999 3.39961 10.6999 3.79961 10.5999 4.29961V4.49961C9.49992 4.49961 8.39992 4.69961 7.29992 5.09961C6.09992 5.49961 5.29992 6.59961 5.39992 7.89961V8.29961C5.39992 9.59961 6.59992 10.6996 7.99992 10.5996ZM10.4999 5.79961V6.19961C10.5999 6.79961 10.4999 7.49961 10.1999 7.99961C9.99992 8.49961 9.49992 8.79961 8.99992 8.79961C8.29992 8.79961 7.89992 8.29961 7.89992 7.49961C7.89992 6.09961 9.19992 5.79961 10.4999 5.79961Z" fill="#FFF7F7"/>
</svg>
