<svg width="20" height="19" viewBox="0 0 20 19" fill="none" xmlns="http://www.w3.org/2000/svg">
<path d="M18.9018 9.55771C18.9018 4.43972 14.7739 0.286133 9.68749 0.286133C4.60113 0.286133 0.473206 4.43972 0.473206 9.55771C0.473206 14.1887 3.84197 18.0272 8.25458 18.7147V12.2313H5.90119V9.55771H8.25458V7.51433C8.25458 5.19405 9.62107 3.90501 11.7277 3.90501C12.7336 3.90501 13.7775 4.09598 13.7775 4.09598V6.35897H12.6197C11.4715 6.35897 11.1109 7.08465 11.1109 7.81034V9.54816H13.6731L13.265 12.2217H11.1109V18.7052C15.533 18.0272 18.9018 14.1887 18.9018 9.55771Z" fill="#1877F2"/>
<path d="M13.2743 12.1602L13.6823 9.50453H11.1202V7.77833C11.1202 7.04802 11.4903 6.33667 12.629 6.33667H13.7867V4.07934C13.7867 4.07934 12.7429 3.88965 11.737 3.88965C9.63032 3.88965 8.26384 5.17007 8.26384 7.47483V9.50453H5.91045V12.1602H8.26384V18.6003C8.72882 18.6761 9.21278 18.7141 9.69674 18.7141C10.1807 18.7141 10.6647 18.6761 11.1297 18.6003V12.1602H13.2743Z" fill="white"/>
</svg>
