<svg width="19" height="19" viewBox="0 0 19 19" fill="none" xmlns="http://www.w3.org/2000/svg">
<path fill-rule="evenodd" clip-rule="evenodd" d="M18.3457 9.70994C18.3457 9.05656 18.2871 8.42831 18.1782 7.8252H9.5V11.3894H14.459C14.2454 12.5412 13.5962 13.5171 12.6203 14.1705V16.4824H15.5982C17.3405 14.8783 18.3457 12.5161 18.3457 9.70994Z" fill="#4285F4"/>
<path fill-rule="evenodd" clip-rule="evenodd" d="M9.5 18.7145C11.9879 18.7145 14.0736 17.8895 15.5982 16.4822L12.6203 14.1702C11.7952 14.7231 10.7397 15.0498 9.5 15.0498C7.1001 15.0498 5.06876 13.4289 4.34419 11.251H1.26578V13.6383C2.78195 16.6497 5.89805 18.7145 9.5 18.7145Z" fill="#34A853"/>
<path fill-rule="evenodd" clip-rule="evenodd" d="M4.34419 11.2511C4.1599 10.6982 4.05519 10.1077 4.05519 9.50036C4.05519 8.89305 4.1599 8.3025 4.34419 7.74964V5.3623H1.26578C0.64172 6.60623 0.285713 8.01351 0.285713 9.50036C0.285713 10.9872 0.64172 12.3945 1.26578 13.6384L4.34419 11.2511Z" fill="#FBBC05"/>
<path fill-rule="evenodd" clip-rule="evenodd" d="M9.5 3.95091C10.8528 3.95091 12.0674 4.41581 13.0224 5.32886L15.6652 2.68604C14.0694 1.19918 11.9837 0.286133 9.5 0.286133C5.89805 0.286133 2.78195 2.35097 1.26578 5.36237L4.34419 7.7497C5.06876 5.57178 7.1001 3.95091 9.5 3.95091Z" fill="#EA4335"/>
</svg>
