<svg width="20" height="12" viewBox="0 0 20 12" fill="none" xmlns="http://www.w3.org/2000/svg">
<path fill-rule="evenodd" clip-rule="evenodd" d="M17.9564 11.5607L15.9134 11.3111L16.1406 9.51846L18.1836 9.76766L17.9564 11.5607ZM20 0.686859L16.5038 0.255859L16.5262 8.36026L18.0476 8.56406L20 0.686859ZM12.9626 2.09466C11.555 1.02746 9.739 0.506459 7.5366 0.506459C5.312 0.506459 3.496 1.02746 2.1114 2.09466C0.7038 3.13826 0 4.47846 0 6.13526C0 7.81526 0.7038 9.17786 2.1114 10.2223C3.2598 11.0883 4.7054 11.5953 6.4344 11.7427H8.6306C10.347 11.5955 11.795 11.0885 12.9628 10.2223C14.3474 9.17766 15.051 7.81526 15.051 6.13526C15.0508 4.47846 14.3472 3.13826 12.9626 2.09466ZM11.9182 4.75046L10.8512 4.97786C10.6926 5.02286 10.261 5.34106 9.512 5.95406C8.7172 6.58966 8.3086 6.99826 8.2408 7.20246L8.1954 7.77046L8.1726 8.11106L8.2636 8.97346L9.6712 8.99526L9.6482 9.42686H7.3552L5.312 9.44966L5.3802 9.04106L6.0386 9.01926C6.3792 8.99546 6.5838 8.95046 6.6514 8.88206C6.697 8.83666 6.7196 8.56406 6.7196 8.08746V7.79246L6.697 7.20226C6.6514 7.06666 6.2882 6.56666 5.5846 5.70386C4.8582 4.81866 4.3816 4.29646 4.1544 4.11446L2.8378 3.93366V3.54726C2.906 3.50226 3.6324 3.50226 4.9716 3.52466C5.9024 3.50246 6.6742 3.50246 7.2874 3.54726L7.2418 3.86566L5.8568 4.00126C6.2882 4.63726 6.9468 5.52226 7.832 6.63526C8.9898 5.74926 9.6028 5.18166 9.6252 4.93166L8.445 4.75046L8.3544 4.34226H10.3292L12.1908 4.36486L11.9182 4.75046Z" fill="#760C5F"/>
</svg>
